<?xml version="1.0" standalone="no"?>
<!DOCTYPE svg PUBLIC "-//W3C//DTD SVG 20010904//EN"
 "http://www.w3.org/TR/2001/REC-SVG-20010904/DTD/svg10.dtd">
<svg version="1.0" xmlns="http://www.w3.org/2000/svg"
 width="495.000000pt" height="166.000000pt" viewBox="0 0 495.000000 166.000000"
 preserveAspectRatio="xMidYMid meet">

<g transform="translate(0.000000,166.000000) scale(0.100000,-0.100000)"
fill="#000000" stroke="none">
<path d="M290 1500 l0 -110 115 0 115 0 0 110 0 110 -115 0 -115 0 0 -110z"/>
<path d="M60 800 l0 -580 110 0 110 0 0 580 0 580 -110 0 -110 0 0 -580z"/>
<path d="M402 688 l3 -583 404 0 405 0 4 97 3 98 -293 2 -293 3 0 150 0 150
243 3 242 2 0 90 0 90 -245 0 -245 0 0 140 0 140 285 0 285 0 0 100 0 100
-400 0 -400 0 2 -582z"/>
<path d="M1350 755 c0 -145 3 -186 13 -182 9 3 12 48 12 182 0 134 -3 179 -12
183 -10 3 -13 -38 -13 -183z"/>
<path d="M1470 755 c0 -156 2 -185 15 -185 12 0 15 26 17 152 l3 152 120 -151
c66 -84 126 -152 133 -153 7 0 12 14 12 38 1 76 2 298 1 315 -1 9 -5 17 -11
17 -6 0 -10 -58 -10 -155 0 -85 -3 -155 -7 -155 -5 0 -64 70 -131 155 -68 85
-128 155 -133 155 -5 0 -9 -81 -9 -185z"/>
<path d="M1830 925 c0 -12 14 -15 65 -15 l65 0 0 -170 c0 -144 2 -170 15 -170
13 0 15 26 15 170 l0 170 70 0 c58 0 68 3 64 15 -5 12 -31 15 -150 15 -121 0
-144 -2 -144 -15z"/>
<path d="M2180 755 l0 -185 125 0 c77 0 125 4 125 10 0 6 -43 10 -110 10
l-110 0 0 75 0 75 90 0 c73 0 90 3 90 15 0 12 -17 15 -90 15 l-90 0 0 70 0 70
105 0 c87 0 105 3 105 15 0 13 -20 15 -120 15 l-120 0 0 -185z"/>
<path d="M2500 755 l0 -185 120 0 c73 0 120 4 120 10 0 6 -41 10 -104 10 -88
0 -105 3 -110 17 -4 9 -6 82 -6 162 1 182 2 171 -10 171 -6 0 -10 -68 -10
-185z"/>
<path d="M2800 755 c0 -117 4 -185 10 -185 9 0 12 87 12 320 0 46 -1 50 -12
50 -6 0 -10 -68 -10 -185z"/>
<path d="M2989 917 c-99 -53 -124 -190 -53 -285 33 -43 73 -62 132 -62 36 0
59 7 86 25 l36 24 0 -24 c0 -14 5 -25 10 -25 6 0 10 37 10 90 l0 90 -50 0
c-58 0 -68 -17 -12 -22 34 -3 37 -6 40 -37 8 -86 -125 -131 -203 -69 -33 26
-65 91 -65 133 0 47 35 112 72 135 48 31 132 24 164 -13 21 -25 44 -36 44 -21
0 35 -78 83 -136 84 -17 0 -51 -10 -75 -23z"/>
<path d="M3290 755 l0 -185 120 0 c73 0 120 4 120 10 0 6 -42 10 -105 10
l-105 0 0 75 0 75 90 0 c73 0 90 3 90 15 0 12 -17 15 -90 15 l-90 0 0 70 0 70
105 0 c87 0 105 3 105 15 0 13 -20 15 -120 15 l-120 0 0 -185z"/>
<path d="M3610 756 c0 -231 18 -256 22 -30 l3 155 124 -155 c68 -86 130 -156
137 -156 11 0 14 36 14 186 0 144 -3 185 -12 182 -9 -3 -14 -48 -18 -159 l-5
-154 -123 155 c-68 85 -128 157 -133 158 -5 2 -9 -72 -9 -182z"/>
<path d="M4085 921 c-97 -45 -132 -154 -80 -257 13 -27 40 -59 58 -71 65 -44
182 -23 221 39 20 32 -4 32 -38 -1 -92 -89 -236 -15 -236 123 0 89 50 147 133
154 49 4 57 1 89 -27 56 -49 82 -38 30 12 -28 27 -79 47 -117 47 -11 0 -38 -9
-60 -19z"/>
<path d="M4360 756 c0 -160 2 -186 15 -186 13 0 15 24 13 182 -2 134 -6 182
-15 186 -10 3 -13 -38 -13 -182z"/>
<path d="M4586 908 c-123 -285 -143 -338 -129 -338 8 0 25 25 40 60 l26 60 88
0 87 0 24 -60 c12 -33 29 -60 35 -60 7 0 13 3 13 8 0 18 -149 357 -159 360 -5
2 -17 -12 -25 -30z m62 -98 c17 -44 32 -84 32 -90 0 -6 -31 -10 -76 -10 -42 0
-74 3 -72 8 2 4 19 44 37 90 19 45 37 82 40 82 4 0 21 -36 39 -80z"/>
<path d="M3104 456 c-70 -31 -96 -110 -51 -161 13 -15 50 -34 91 -48 76 -24
98 -45 77 -71 -19 -23 -84 -20 -132 5 -23 11 -42 19 -44 17 -8 -9 -25 -48 -25
-56 0 -13 63 -38 116 -46 80 -14 160 27 165 84 7 76 -15 102 -111 131 -74 22
-95 41 -79 71 12 23 82 24 123 3 16 -9 30 -14 31 -13 1 2 8 14 15 27 11 21 10
26 -6 38 -44 32 -120 40 -170 19z"/>
<path d="M1320 280 l0 -180 125 0 125 0 0 30 0 30 -90 0 -90 0 0 50 0 50 78 0
c77 0 78 0 78 25 0 25 -1 25 -78 25 l-78 0 0 45 0 45 90 0 90 0 0 30 0 30
-125 0 -125 0 0 -180z"/>
<path d="M1630 280 l0 -180 35 0 35 0 0 118 1 117 47 -87 c59 -110 76 -114
116 -30 15 32 36 69 47 82 l19 25 0 -112 0 -113 35 0 35 0 0 180 0 180 -39 0
-40 0 -54 -101 -54 -101 -52 101 -52 101 -39 0 -40 0 0 -180z"/>
<path d="M2070 280 l0 -180 40 0 40 0 0 60 0 60 59 0 c49 0 65 4 90 25 59 50
64 129 11 185 -28 30 -29 30 -134 30 l-106 0 0 -180z m188 108 c17 -17 15 -74
-4 -92 -9 -10 -33 -16 -60 -16 l-44 0 0 60 0 60 48 0 c26 0 53 -5 60 -12z"/>
<path d="M2400 280 l0 -180 35 0 35 0 0 60 0 60 34 0 c31 0 38 -5 71 -60 35
-57 38 -60 77 -60 l40 0 -28 48 c-15 26 -32 55 -38 64 -8 13 -5 23 12 41 49
53 49 126 0 176 -30 31 -31 31 -134 31 l-104 0 0 -180z m190 101 c30 -57 -1
-101 -72 -101 l-48 0 0 60 0 60 55 0 c43 0 56 -4 65 -19z"/>
<path d="M2740 280 l0 -180 124 0 c109 0 124 2 128 18 10 37 -1 42 -93 42
l-90 0 3 48 3 47 78 3 c74 3 77 4 77 27 0 23 -3 24 -77 27 l-78 3 -3 43 -3 42
90 0 91 0 0 30 0 30 -125 0 -125 0 0 -180z"/>
<path d="M3391 293 c-35 -92 -66 -174 -69 -181 -3 -10 5 -13 33 -10 35 3 40 7
54 46 l15 43 65 -3 64 -3 15 -42 c13 -41 16 -43 53 -43 l39 0 -20 53 c-11 28
-41 108 -67 177 l-48 125 -35 3 -35 3 -64 -168z m128 4 l20 -57 -51 0 c-36 0
-49 4 -45 13 2 6 13 36 23 64 10 29 22 49 26 45 4 -4 16 -33 27 -65z"/>
<path d="M3700 280 l0 -180 35 0 35 0 0 61 0 60 37 -3 c33 -3 41 -9 71 -60 32
-55 36 -58 73 -58 22 0 39 2 39 4 0 3 -16 32 -36 66 l-37 61 26 27 c49 51 44
139 -10 182 -22 17 -41 20 -129 20 l-104 0 0 -180z m198 88 c10 -21 10 -32 0
-52 -13 -29 -38 -39 -89 -34 -34 3 -34 3 -37 61 l-3 58 58 -3 c51 -3 59 -6 71
-30z"/>
<path d="M4040 280 l0 -180 38 0 37 0 -3 180 -3 180 -34 0 -35 0 0 -180z"/>
<path d="M4227 287 c-37 -96 -67 -177 -67 -181 0 -4 17 -6 37 -4 33 3 38 7 51
45 l14 43 63 0 63 0 18 -45 c16 -42 19 -45 54 -45 l38 0 -68 178 -67 177 -35
3 -34 3 -67 -174z m127 19 c9 -27 16 -53 16 -58 0 -4 -20 -8 -45 -8 -25 0 -45
4 -45 9 0 22 44 121 50 114 4 -4 15 -30 24 -57z"/>
<path d="M4540 280 l0 -180 130 0 130 0 0 30 0 30 -95 0 -95 0 0 150 0 150
-35 0 -35 0 0 -180z"/>
</g>
</svg>
