<?xml version="1.0" standalone="no"?>
<!DOCTYPE svg PUBLIC "-//W3C//DTD SVG 20010904//EN"
 "http://www.w3.org/TR/2001/REC-SVG-20010904/DTD/svg10.dtd">
<svg version="1.0" xmlns="http://www.w3.org/2000/svg"
 width="520.000000pt" height="520.000000pt" viewBox="0 0 520.000000 520.000000"
 preserveAspectRatio="xMidYMid meet">

<g transform="translate(0.000000,520.000000) scale(0.100000,-0.100000)"
fill="#000000" stroke="none">
<path d="M2370 5060 c-1002 -104 -1835 -776 -2134 -1719 -79 -250 -110 -462
-111 -746 0 -212 9 -306 46 -490 129 -644 522 -1218 1084 -1584 435 -284 990
-429 1501 -392 181 14 281 29 454 72 683 169 1279 645 1599 1279 250 494 327
1030 226 1574 -173 935 -893 1702 -1818 1936 -84 21 -204 46 -267 55 -133 19
-456 28 -580 15z m590 -114 c541 -92 980 -320 1350 -702 352 -364 563 -787
647 -1299 22 -138 25 -534 5 -664 -30 -189 -146 -587 -163 -560 -5 8 -2 20 6
29 13 14 11 16 -17 18 -43 3 -49 12 -10 12 18 0 32 5 32 10 0 6 -5 10 -11 10
-5 0 -7 5 -4 10 4 6 -6 10 -22 11 -15 0 -37 4 -48 9 -14 7 -8 8 20 4 23 -3 35
-2 28 3 -17 12 1 37 21 30 10 -4 16 -1 16 9 0 11 -5 14 -17 9 -10 -4 -34 -9
-53 -11 l-35 -4 30 14 c24 12 26 15 10 16 -11 1 -15 4 -8 6 7 3 9 12 6 21 -5
13 -3 13 15 4 27 -14 27 -14 29 9 1 11 -3 20 -8 20 -6 0 -7 -5 -3 -11 4 -7 0
-9 -12 -5 -11 3 -39 6 -64 7 -25 1 -54 7 -65 12 -18 9 -18 8 -7 -6 12 -14 11
-16 -7 -12 -12 2 -19 0 -16 -6 4 -5 21 -9 38 -10 31 -1 31 -1 7 -9 -14 -4 -43
-8 -64 -9 -22 -1 -36 -4 -33 -8 4 -3 21 -6 39 -6 18 1 28 -1 21 -4 -7 -2 -10
-10 -7 -17 5 -14 -22 -30 -36 -21 -5 3 -12 0 -16 -6 -4 -7 -3 -9 4 -5 6 3 13
2 16 -3 3 -5 21 -6 38 -2 18 4 44 5 57 1 20 -5 13 -9 -40 -24 -50 -14 -60 -19
-47 -27 10 -5 15 -16 12 -24 -4 -8 -2 -15 4 -15 5 0 12 -7 16 -15 4 -10 -6
-17 -37 -25 -23 -6 -49 -15 -58 -20 -9 -5 -25 -7 -35 -6 -11 2 -12 1 -4 -2 12
-4 11 -6 -5 -13 -12 -4 0 -5 28 -2 29 4 47 2 47 -5 0 -12 -29 -26 -47 -23 -7
1 -13 -3 -13 -9 0 -12 27 -13 34 -1 3 5 23 9 43 9 44 1 63 4 80 15 7 4 21 4
31 -2 11 -6 24 -6 33 0 23 14 34 10 13 -6 -10 -8 -31 -15 -46 -15 -15 0 -42
-8 -60 -18 -18 -10 -38 -17 -45 -15 -6 2 -17 -5 -23 -16 -6 -12 -17 -21 -25
-21 -8 0 -15 -4 -15 -10 0 -5 7 -7 16 -3 12 4 15 2 12 -8 -3 -8 -11 -13 -17
-12 -6 2 -11 -2 -11 -8 0 -5 -4 -8 -9 -4 -5 3 -12 1 -15 -4 -3 -4 -17 -8 -31
-9 -18 0 -23 4 -16 12 17 20 -52 40 -81 25 -21 -11 -22 -11 -9 4 19 24 4 21
-49 -8 -39 -22 -42 -22 -20 -4 14 12 24 26 22 31 -1 5 3 8 10 6 19 -3 68 11
68 21 0 13 -93 4 -104 -11 -17 -21 -102 -88 -112 -88 -5 0 6 12 24 26 18 14
30 29 27 34 -10 16 -45 18 -57 1 -12 -15 -11 -15 7 -1 22 16 0 -10 -80 -95
-26 -27 -44 -43 -40 -35 3 8 -1 6 -9 -4 -16 -19 -16 -19 -16 4 0 13 -3 21 -6
18 -3 -3 -27 0 -55 7 -27 7 -47 9 -43 4 3 -5 11 -9 18 -9 22 0 96 -59 116 -93
22 -36 26 -106 9 -140 -6 -12 -21 -33 -33 -46 l-21 -24 30 15 c17 9 68 21 115
27 123 17 211 39 329 83 57 21 105 37 107 35 8 -7 -126 -185 -210 -280 -313
-351 -732 -605 -1190 -722 -215 -54 -342 -69 -586 -69 -291 0 -525 37 -779
126 -133 46 -435 199 -553 280 -363 249 -636 566 -814 945 -69 145 -108 247
-96 251 19 6 212 123 212 128 0 6 -29 -9 -127 -68 -46 -27 -87 -47 -93 -43
-24 15 -91 295 -115 480 -29 227 -15 537 36 772 52 241 174 542 304 748 263
418 657 755 1098 939 226 95 428 146 707 180 83 10 489 -3 580 -18z m1770
-3010 c0 -11 -19 -15 -25 -6 -3 5 1 10 9 10 9 0 16 -2 16 -4z m-20 -36 c11 -8
7 -9 -15 -4 -37 8 -45 14 -19 14 10 0 26 -5 34 -10z m-26 -38 c3 -5 -1 -9 -9
-9 -8 0 -12 4 -9 9 3 4 7 8 9 8 2 0 6 -4 9 -8z m16 -72 c0 -5 -5 -10 -11 -10
-5 0 -7 5 -4 10 3 6 8 10 11 10 2 0 4 -4 4 -10z m-46 -8 c2 -4 -4 -8 -15 -8
-10 0 -19 4 -19 8 0 4 6 8 14 8 8 0 17 -4 20 -8z m46 -32 c0 -14 -28 -31 -34
-21 -4 6 -13 8 -20 5 -8 -3 -17 -1 -21 5 -3 7 2 11 14 11 11 0 22 4 26 10 6
10 35 2 35 -10z m37 14 c-3 -3 -12 -4 -19 -1 -8 3 -5 6 6 6 11 1 17 -2 13 -5z
m-87 -84 c0 -5 -2 -10 -4 -10 -3 0 -8 5 -11 10 -3 6 -1 10 4 10 6 0 11 -4 11
-10z m140 0 c0 -5 -5 -10 -11 -10 -5 0 -7 5 -4 10 3 6 8 10 11 10 2 0 4 -4 4
-10z m-190 -4 c0 -3 -4 -8 -10 -11 -5 -3 -10 -1 -10 4 0 6 5 11 10 11 6 0 10
-2 10 -4z m-110 -190 c0 -2 -7 -7 -16 -10 -8 -3 -12 -2 -9 4 6 10 25 14 25 6z"/>
<path d="M2384 4782 c-69 -24 -99 -45 -134 -93 -47 -66 -63 -128 -58 -233 6
-114 31 -178 97 -239 57 -54 105 -71 191 -71 81 0 145 29 194 86 45 52 66 113
73 211 l6 77 -44 0 c-24 0 -88 -3 -141 -7 -110 -7 -107 -4 -91 -96 l6 -38 53
7 c53 6 54 6 54 -18 0 -59 -77 -106 -142 -88 -71 21 -112 93 -113 195 0 80 26
140 75 168 54 33 126 12 155 -44 l16 -30 42 24 c23 13 52 30 65 36 21 11 21
14 8 39 -55 105 -195 156 -312 114z"/>
<path d="M2930 4463 c-96 -141 -176 -262 -178 -268 -1 -6 28 -19 65 -29 75
-20 63 -25 118 48 l20 26 83 -24 c45 -14 87 -28 92 -31 6 -3 10 -30 10 -58 l0
-53 66 -17 c37 -10 69 -16 72 -13 9 10 -21 616 -32 630 -9 10 -115 46 -137 46
-3 0 -83 -116 -179 -257z m197 -140 c-8 -7 -97 19 -97 29 0 6 21 45 48 87 l47
76 3 -94 c1 -51 1 -95 -1 -98z"/>
<path d="M1576 4534 c-94 -34 -146 -97 -146 -176 0 -78 49 -166 108 -194 32
-15 45 -15 118 -4 94 14 121 8 130 -25 15 -60 -36 -100 -118 -93 l-48 5 0 -37
c0 -21 3 -52 6 -69 6 -31 7 -31 68 -31 143 0 265 119 240 233 -10 47 -48 119
-79 147 -25 24 -33 25 -146 25 -96 0 -122 3 -129 15 -25 40 9 80 73 87 l47 6
0 41 c0 73 -8 86 -49 85 -20 0 -53 -7 -75 -15z"/>
<path d="M3872 4300 c-48 -11 -108 -55 -138 -100 -38 -57 -35 -104 10 -190 20
-38 36 -78 36 -88 0 -25 -31 -52 -59 -52 -34 0 -79 51 -87 99 -4 23 -12 41
-18 41 -6 0 -35 -10 -63 -22 -61 -27 -64 -38 -29 -113 27 -59 88 -118 141
-135 116 -38 256 49 272 170 5 34 0 54 -31 115 -39 76 -43 111 -14 129 35 22
88 -20 111 -88 4 -12 117 40 117 54 0 36 -83 141 -129 164 -37 19 -81 24 -119
16z"/>
<path d="M2033 4236 c-22 -19 -28 -32 -28 -66 0 -35 6 -47 33 -71 40 -35 75
-37 107 -4 37 36 35 97 -4 136 -36 35 -70 37 -108 5z"/>
<path d="M3363 4120 c-27 -11 -53 -59 -53 -100 0 -42 31 -70 79 -70 32 0 44 6
65 31 65 77 0 176 -91 139z"/>
<path d="M895 3949 c-47 -61 -88 -116 -90 -122 -4 -10 446 -365 474 -375 4 -1
49 51 99 117 l92 119 -43 34 c-23 19 -47 38 -54 41 -7 5 -30 -17 -61 -57 l-49
-65 -42 30 c-45 34 -45 31 11 102 21 27 38 52 38 55 -1 4 -24 25 -51 46 l-51
39 -24 -29 c-13 -16 -34 -44 -46 -61 -13 -18 -25 -33 -28 -33 -3 0 -22 14 -43
31 l-37 31 51 64 c28 36 50 66 48 67 -2 2 -25 19 -51 40 -25 20 -49 37 -52 37
-3 0 -44 -50 -91 -111z"/>
<path d="M1471 3918 c-29 -15 -46 -59 -37 -94 18 -71 114 -100 156 -47 57 72
-38 183 -119 141z"/>
<path d="M2106 3865 c-9 -14 -30 -28 -46 -32 -23 -4 -30 -11 -30 -29 0 -20 5
-24 30 -24 l30 0 0 -105 0 -105 45 0 45 0 0 160 0 160 -29 0 c-20 0 -34 -8
-45 -25z"/>
<path d="M2312 3873 c-93 -45 -75 -190 26 -211 l32 -7 -41 -47 -41 -48 50 0
c46 0 52 3 95 48 24 27 53 64 62 82 20 39 23 106 6 138 -30 56 -122 78 -189
45z m112 -85 c16 -46 -39 -89 -72 -56 -16 16 -15 61 0 76 22 22 62 10 72 -20z"/>
<path d="M2609 3867 c-68 -45 -71 -148 -6 -187 18 -11 40 -20 50 -20 26 0 21
-10 -25 -57 l-42 -43 50 0 c47 0 53 3 101 53 79 79 101 152 67 218 -30 59
-133 78 -195 36z m115 -63 c26 -67 -33 -116 -70 -59 -24 37 -6 75 35 75 17 0
31 -6 35 -16z"/>
<path d="M2978 3873 c-58 -69 -128 -184 -128 -212 l0 -31 75 0 75 0 0 -30 c0
-28 2 -30 40 -30 38 0 40 2 40 30 0 27 3 30 30 30 27 0 30 3 30 30 0 27 -3 30
-30 30 l-30 0 0 100 0 100 -43 0 c-29 0 -49 -6 -59 -17z m19 -180 c-3 -2 -19
-3 -35 -1 l-31 3 32 53 32 53 3 -52 c2 -28 1 -53 -1 -56z"/>
<path d="M4065 3758 c-165 -40 -302 -73 -304 -75 -2 -1 12 -29 32 -60 38 -62
44 -64 117 -49 35 7 35 7 83 -69 26 -42 47 -81 47 -87 0 -6 -13 -26 -30 -45
-16 -18 -30 -38 -30 -43 0 -10 68 -120 75 -120 6 0 396 471 402 486 6 17 -64
134 -80 133 -7 0 -147 -32 -312 -71z m185 -105 c-1 -11 -119 -138 -123 -132
-38 53 -56 90 -45 94 27 10 144 44 156 44 6 1 12 -2 12 -6z"/>
<path d="M703 3570 c-51 -26 -68 -52 -126 -191 l-44 -105 276 -114 c152 -63
280 -115 284 -115 11 0 60 115 52 123 -3 3 -51 25 -107 48 -115 47 -119 43 67
64 55 7 100 13 101 13 0 1 14 36 31 77 17 41 28 76 24 78 -4 1 -69 -10 -143
-26 l-136 -29 -6 37 c-13 80 -89 143 -186 155 -34 5 -55 1 -87 -15z m117 -145
c16 -8 31 -24 35 -35 7 -23 -2 -77 -15 -85 -4 -3 -38 8 -74 25 l-67 30 16 29
c26 50 57 61 105 36z"/>
<path d="M4089 3205 c-78 -42 -47 -155 42 -155 28 0 77 27 89 49 42 79 -48
151 -131 106z"/>
<path d="M1740 2775 c0 -8 5 -15 10 -15 6 0 10 7 10 15 0 8 -4 15 -10 15 -5 0
-10 -7 -10 -15z"/>
<path d="M4474 2745 c38 -36 39 -38 21 -51 -10 -8 -14 -14 -9 -14 6 0 28 -17
48 -37 21 -21 36 -33 34 -28 -1 6 1 10 7 10 5 0 9 -5 7 -10 -1 -6 11 -19 28
-28 33 -20 73 -72 75 -99 1 -14 -1 -15 -12 -6 -8 6 -12 17 -9 25 4 9 1 11 -6
7 -7 -5 -8 -3 -3 6 5 9 4 11 -3 6 -7 -4 -24 4 -38 18 -15 13 -33 22 -41 19 -8
-3 -13 0 -11 8 2 8 -7 14 -24 14 -16 1 -33 6 -40 13 -15 15 -28 16 -28 1 0 -5
5 -7 12 -3 8 5 9 2 5 -9 -3 -9 -3 -16 1 -15 19 4 134 -51 128 -61 -3 -5 4 -17
17 -27 l22 -19 -19 23 c-11 12 -14 22 -8 22 15 0 53 -56 44 -65 -4 -5 -2 -5 4
-2 17 10 35 -16 39 -55 2 -18 4 -35 4 -38 2 -9 48 -60 55 -60 4 0 -5 16 -21
36 -15 20 -28 47 -29 60 -1 30 10 23 26 -15 7 -18 17 -28 25 -24 22 8 36 -6
26 -25 -6 -11 -5 -25 1 -36 9 -16 8 -18 -5 -13 -14 5 -15 3 -5 -13 19 -29 34
-7 20 27 -12 27 -11 27 4 8 8 -11 20 -19 26 -17 5 1 1 -12 -10 -30 -13 -23
-17 -39 -12 -53 7 -17 9 -15 9 11 1 19 10 39 23 50 12 10 18 13 14 7 -4 -7 -3
-13 2 -13 18 0 22 31 8 64 -47 112 -268 374 -352 416 -16 8 -42 23 -59 33 -25
16 -23 13 9 -18z m60 -77 c-3 -5 -12 -4 -20 3 -7 6 -11 15 -8 21 3 5 12 4 20
-3 7 -6 11 -15 8 -21z m191 -228 c10 -11 16 -20 13 -20 -3 0 -13 9 -23 20 -10
11 -16 20 -13 20 3 0 13 -9 23 -20z m112 -137 c-3 -10 -5 -4 -5 12 0 17 2 24
5 18 2 -7 2 -21 0 -30z"/>
<path d="M1716 2724 c-4 -11 -14 -14 -27 -11 -17 4 -19 2 -13 -16 10 -36 17
-37 53 -7 32 27 32 29 13 39 -16 8 -21 7 -26 -5z"/>
<path d="M4437 2719 c7 -7 15 -10 18 -7 3 3 -2 9 -12 12 -14 6 -15 5 -6 -5z"/>
<path d="M1835 2704 c-12 -12 -19 -14 -28 -5 -6 6 -15 11 -19 11 -9 0 2 -23
27 -54 15 -19 15 -19 28 -1 18 24 35 13 42 -28 8 -43 -20 -228 -51 -335 -49
-169 -152 -322 -207 -307 -14 4 -17 3 -10 -2 9 -6 3 -12 -18 -20 -26 -10 -29
-10 -18 3 10 12 8 17 -7 29 -26 19 -30 19 -48 -7 -18 -25 -11 -36 24 -43 32
-6 38 -15 10 -15 -13 0 -21 -3 -17 -6 3 -4 -2 -14 -13 -23 -10 -9 -25 -39 -33
-68 l-14 -52 30 -12 c16 -7 40 -23 53 -36 34 -34 104 -41 170 -16 53 21 174
98 187 120 14 24 69 40 106 32 51 -11 77 3 130 73 11 14 10 17 -6 17 -10 0
-51 11 -92 25 -40 14 -78 23 -85 20 -6 -4 -4 1 4 9 14 15 21 15 90 -4 41 -12
83 -26 94 -31 17 -9 18 -7 14 16 -3 14 -1 26 5 26 5 0 5 6 -2 13 -8 11 -2 22
28 49 69 61 101 218 66 318 -18 52 -18 50 1 50 14 0 14 2 3 16 -11 14 -10 18
5 30 22 16 16 54 -13 83 -22 22 -304 116 -325 108 -7 -3 -22 0 -32 7 -35 24
-61 28 -79 10z m165 -94 c0 -5 -2 -10 -4 -10 -3 0 -8 5 -11 10 -3 6 -1 10 4
10 6 0 11 -4 11 -10z m68 -56 c12 -8 22 -24 22 -34 0 -12 12 -22 35 -30 38
-12 132 -88 128 -102 -2 -4 2 -8 8 -8 5 0 8 -4 4 -9 -3 -5 0 -13 6 -16 6 -4 9
-30 8 -59 -3 -63 -9 -87 -19 -81 -4 3 -11 -2 -14 -11 -4 -9 -2 -13 5 -8 8 4 8
1 0 -12 -31 -56 -108 -88 -177 -75 -57 11 -65 18 -58 49 10 41 -14 14 -31 -34
-14 -42 -39 -54 -67 -32 -14 11 -15 21 -9 56 5 24 15 48 24 55 24 19 39 93 32
156 -6 51 -4 59 19 84 21 22 26 38 26 78 0 54 15 63 58 33z m-121 -91 c-3 -10
-5 -4 -5 12 0 17 2 24 5 18 2 -7 2 -21 0 -30z m-10 -150 c-3 -10 -5 -2 -5 17
0 19 2 27 5 18 2 -10 2 -26 0 -35z m-26 -86 c-10 -9 -11 -8 -5 6 3 10 9 15 12
12 3 -3 0 -11 -7 -18z m-21 -52 c0 -8 -4 -15 -10 -15 -5 0 -7 7 -4 15 4 8 8
15 10 15 2 0 4 -7 4 -15z m-28 -117 c15 4 19 2 13 -7 -5 -10 -2 -11 13 -7 11
4 23 2 27 -4 3 -6 12 -7 18 -3 7 4 6 -1 -2 -10 -10 -13 -17 -15 -27 -6 -8 6
-21 9 -29 5 -8 -3 -15 -1 -15 5 0 6 -7 9 -15 5 -11 -4 -15 1 -14 17 0 12 3 17
5 11 3 -7 14 -9 26 -6z m253 -146 c-3 -3 -11 0 -18 7 -9 10 -8 11 6 5 10 -3
15 -9 12 -12z m-158 -28 c-6 -6 -77 9 -77 16 0 4 18 3 40 -2 23 -6 39 -12 37
-14z"/>
<path d="M2033 2540 c1 -14 8 -20 25 -20 25 0 22 14 -8 30 -16 8 -19 7 -17
-10z"/>
<path d="M2030 2496 c0 -9 7 -12 21 -9 16 4 17 8 7 14 -19 13 -28 11 -28 -5z"/>
<path d="M2017 2463 c-14 -14 -6 -20 19 -15 19 3 22 7 12 13 -16 11 -23 11
-31 2z"/>
<path d="M1983 2400 c-1 -13 4 -20 15 -20 11 0 18 8 19 20 1 13 -4 20 -15 20
-11 0 -18 -8 -19 -20z"/>
<path d="M1983 2350 c-1 -11 4 -20 12 -20 20 0 30 21 14 31 -21 13 -25 11 -26
-11z"/>
<path d="M1995 2310 c-16 -7 -17 -9 -3 -9 9 -1 19 -7 21 -13 3 -7 6 -3 6 10 1
12 0 22 -1 21 -2 0 -12 -4 -23 -9z"/>
<path d="M1974 2265 c-8 -19 4 -35 24 -35 14 1 14 2 -3 12 -19 12 -19 12 5 18
l25 6 -23 6 c-15 4 -25 2 -28 -7z"/>
<path d="M1964 2222 c3 -6 0 -12 -6 -15 -16 -5 -10 -12 18 -21 15 -5 24 -2 28
10 8 20 8 19 -23 29 -15 5 -21 3 -17 -3z"/>
<path d="M1934 2170 c0 -14 7 -20 23 -20 28 0 30 16 4 30 -26 13 -27 13 -27
-10z"/>
<path d="M1920 2126 c0 -9 8 -12 26 -8 19 3 22 7 12 13 -20 13 -38 11 -38 -5z"/>
<path d="M4430 2636 c0 -2 7 -9 15 -16 9 -7 15 -8 15 -2 0 5 -7 12 -15 16 -8
3 -15 4 -15 2z"/>
<path d="M3246 2615 c-3 -9 -2 -13 3 -10 5 3 12 2 15 -3 2 -4 -7 -13 -22 -20
-37 -17 -69 -62 -52 -72 28 -17 89 38 90 81 0 25 -26 44 -34 24z m-34 -97 c-7
-7 -12 -8 -12 -2 0 14 12 26 19 19 2 -3 -1 -11 -7 -17z"/>
<path d="M4526 2485 c4 -8 11 -15 16 -15 6 0 5 6 -2 15 -7 8 -14 15 -16 15 -2
0 -1 -7 2 -15z"/>
<path d="M4628 2448 c5 -5 16 -8 23 -6 8 3 3 7 -10 11 -17 4 -21 3 -13 -5z"/>
<path d="M1811 2364 c0 -11 3 -14 6 -6 3 7 2 16 -1 19 -3 4 -6 -2 -5 -13z"/>
<path d="M3356 2349 c-33 -26 -56 -75 -55 -113 l1 -31 7 30 c4 20 9 26 14 18
5 -7 5 -19 1 -25 -4 -7 -4 -10 1 -6 5 5 14 -1 22 -11 10 -15 19 -18 40 -12 16
4 28 14 28 24 0 25 18 23 33 -4 12 -22 13 -18 8 33 -8 74 -14 88 -40 89 -16 1
-17 2 -3 6 25 7 21 18 -8 19 -14 1 -36 -7 -49 -17z"/>
<path d="M1785 2274 c-12 -34 -18 -61 -14 -58 12 7 41 91 37 107 -1 8 -12 -14
-23 -49z"/>
<path d="M1752 2298 c-12 -37 -25 -109 -17 -93 8 17 34 120 30 123 -2 2 -8
-12 -13 -30z"/>
<path d="M2985 2320 c3 -5 8 -10 11 -10 2 0 4 5 4 10 0 6 -5 10 -11 10 -5 0
-7 -4 -4 -10z"/>
<path d="M1646 2295 c-11 -8 -15 -15 -9 -15 6 0 16 7 23 15 16 19 11 19 -14 0z"/>
<path d="M4745 2270 c10 -11 20 -20 22 -20 2 0 -2 9 -9 20 -7 11 -17 20 -22
20 -5 0 -1 -9 9 -20z"/>
<path d="M4848 2235 c-8 -8 4 -65 14 -65 5 0 6 5 2 12 -5 7 -2 9 9 5 9 -3 18
1 21 9 9 24 8 25 -16 22 -14 -2 -22 2 -20 10 2 13 -1 15 -10 7z"/>
<path d="M2799 2188 c0 -2 -2 -21 -4 -43 -3 -22 -7 -56 -9 -75 -2 -19 1 -38 7
-42 6 -3 -5 -13 -24 -21 -19 -8 -49 -28 -68 -44 -27 -23 -31 -31 -20 -40 10
-8 27 -7 64 4 28 8 65 17 83 20 41 7 46 15 23 44 -27 35 -35 67 -32 137 1 37
-2 62 -9 62 -5 0 -10 -1 -11 -2z m14 -195 c-7 -2 -19 -2 -25 0 -7 3 -2 5 12 5
14 0 19 -2 13 -5z"/>
<path d="M4770 2177 c0 -2 6 -10 14 -16 11 -9 16 -9 22 1 4 7 4 10 -1 6 -4 -4
-14 -3 -22 3 -7 6 -13 9 -13 6z"/>
<path d="M3453 2148 c-9 -10 -7 -19 8 -37 17 -20 19 -21 18 -5 0 11 -4 27 -8
37 -6 16 -9 17 -18 5z"/>
<path d="M4665 2031 c-3 -5 -2 -12 3 -15 5 -3 9 1 9 9 0 17 -3 19 -12 6z"/>
<path d="M4598 1993 c7 -3 16 -2 19 1 4 3 -2 6 -13 5 -11 0 -14 -3 -6 -6z"/>
<path d="M4725 1970 c3 -5 11 -10 16 -10 6 0 7 5 4 10 -3 6 -11 10 -16 10 -6
0 -7 -4 -4 -10z"/>
<path d="M4581 1944 c0 -11 3 -14 6 -6 3 7 2 16 -1 19 -3 4 -6 -2 -5 -13z"/>
<path d="M2730 1901 c-30 -6 -32 -8 -14 -14 20 -7 74 6 74 18 0 6 -11 5 -60
-4z"/>
<path d="M4528 1823 c7 -3 16 -2 19 1 4 3 -2 6 -13 5 -11 0 -14 -3 -6 -6z"/>
<path d="M4506 1776 c3 -8 12 -12 20 -9 17 6 9 23 -11 23 -8 0 -12 -6 -9 -14z"/>
<path d="M4555 1759 c-11 -17 1 -21 15 -4 8 9 8 15 2 15 -6 0 -14 -5 -17 -11z"/>
<path d="M4504 1734 c-18 -14 -18 -14 6 -3 31 14 36 19 24 19 -6 0 -19 -7 -30
-16z"/>
<path d="M2611 1680 c0 -8 4 -22 9 -30 12 -18 12 -2 0 25 -6 13 -9 15 -9 5z"/>
<path d="M4400 1662 c0 -10 5 -10 23 -1 31 16 31 17 3 15 -14 0 -26 -7 -26
-14z"/>
<path d="M630 1630 l-145 -6 155 -1 c85 -1 166 3 180 7 29 9 40 9 -190 0z"/>
<path d="M4244 1584 c-18 -14 -18 -15 4 -4 12 6 22 13 22 15 0 8 -5 6 -26 -11z"/>
<path d="M2651 1576 c-2 -21 63 -107 122 -163 34 -32 79 -79 100 -103 21 -25
35 -37 31 -26 -6 16 -4 17 13 7 12 -6 59 -40 106 -75 47 -35 87 -62 90 -60 2
3 28 -4 56 -16 87 -34 81 -22 -14 27 -123 63 -196 112 -188 126 3 7 3 9 -1 5
-9 -7 -92 41 -142 81 -30 25 -136 147 -161 187 -6 11 -12 15 -12 10z"/>
<path d="M1338 1563 c12 -2 30 -2 40 0 9 3 -1 5 -23 4 -22 0 -30 -2 -17 -4z"/>
<path d="M4109 1523 c-13 -16 -12 -17 4 -4 16 13 21 21 13 21 -2 0 -10 -8 -17
-17z"/>
<path d="M848 1398 c-26 -34 -48 -72 -48 -82 0 -3 11 -6 25 -6 24 0 29 8 26
42 -1 9 5 31 14 47 20 40 14 39 -17 -1z"/>
<path d="M3844 1361 c11 -12 27 -17 47 -15 70 8 55 34 -20 34 -42 0 -43 -1
-27 -19z"/>
<path d="M3782 1353 c-20 -14 -27 -15 -45 -4 -19 12 -23 11 -42 -13 -20 -25
-24 -26 -49 -15 -20 10 -29 10 -38 1 -10 -10 -3 -22 29 -54 35 -35 41 -38 36
-18 -4 17 -3 21 6 16 19 -12 59 2 66 23 9 28 44 16 37 -12 -5 -20 -4 -21 13
-7 17 14 17 12 10 -20 -10 -46 -10 -46 -44 -58 -23 -8 -32 -7 -42 4 -6 8 -16
14 -22 14 -5 0 -2 -9 8 -20 10 -11 24 -20 31 -20 25 0 74 36 85 62 12 28 4
139 -9 137 -4 0 -18 -7 -30 -16z"/>
<path d="M3950 1356 c0 -2 7 -9 15 -16 9 -7 15 -8 15 -2 0 5 -7 12 -15 16 -8
3 -15 4 -15 2z"/>
<path d="M3990 1314 c0 -5 7 -19 15 -30 8 -10 15 -14 15 -8 0 5 -7 19 -15 30
-8 10 -15 14 -15 8z"/>
<path d="M3481 1279 c-29 -23 -53 -67 -45 -80 3 -5 -1 -12 -10 -15 -8 -3 -12
-12 -9 -20 7 -20 -60 -46 -119 -46 -35 0 -45 -4 -41 -14 3 -9 -2 -14 -13 -15
-34 -2 -47 2 -83 28 l-36 25 36 -34 c41 -37 118 -69 164 -67 29 1 30 1 5 9
-14 4 -23 9 -20 10 10 3 66 11 98 13 17 1 32 5 32 10 0 4 7 7 15 7 23 0 18
-15 -15 -52 -28 -31 -35 -33 -93 -33 -34 0 -75 4 -92 9 -27 8 -29 8 -16 -7 25
-31 -14 -20 -88 24 -74 45 -126 89 -180 154 -18 22 -28 30 -22 18 18 -35 111
-126 161 -158 101 -64 118 -77 123 -96 3 -10 1 -19 -4 -19 -5 0 -9 -7 -9 -16
0 -9 -5 -12 -11 -8 -8 5 -10 -2 -6 -22 3 -16 1 -37 -5 -48 -10 -18 -7 -18 33
-12 47 8 69 21 69 43 0 22 30 76 54 96 30 25 154 83 196 92 77 15 78 16 16 47
-44 22 -61 37 -72 65 -17 39 -11 88 14 116 21 23 3 21 -27 -4z"/>
<path d="M3930 1212 c-58 -30 -150 -84 -150 -87 0 -7 78 17 111 35 20 11 50
21 67 22 26 2 32 7 32 25 0 28 -15 29 -60 5z"/>
<path d="M3647 1164 c-9 -16 7 -34 41 -44 20 -5 30 -5 27 1 -4 5 -15 9 -26 9
-11 0 -23 9 -28 22 -4 12 -10 17 -14 12z"/>
<path d="M3960 1130 c-21 -7 -21 -8 -5 -9 11 0 27 4 35 9 18 11 5 11 -30 0z"/>
<path d="M3868 1113 c6 -2 18 -2 25 0 6 3 1 5 -13 5 -14 0 -19 -2 -12 -5z"/>
<path d="M4673 1745 c0 -8 4 -12 9 -9 5 3 6 10 3 15 -9 13 -12 11 -12 -6z"/>
<path d="M4826 4755 c-115 -41 -181 -162 -155 -284 46 -218 344 -258 443 -59
98 196 -86 415 -288 343z m178 -89 c48 -36 70 -80 70 -141 0 -60 -22 -105 -69
-141 -133 -101 -321 42 -261 200 30 78 93 119 173 113 37 -2 62 -11 87 -31z"/>
<path d="M4820 4520 c0 -103 1 -110 20 -110 17 0 20 7 20 45 0 41 2 45 25 45
17 0 33 -12 55 -45 19 -27 39 -45 50 -45 27 0 25 10 -9 57 -28 39 -29 41 -10
56 24 21 25 69 1 90 -13 12 -37 17 -85 17 l-67 0 0 -110z m128 48 c-2 -19 -10
-24 -45 -26 -40 -3 -43 -1 -43 22 0 24 3 26 46 26 41 0 45 -2 42 -22z"/>
</g>
</svg>
