<?xml version="1.0" standalone="no"?>
<!DOCTYPE svg PUBLIC "-//W3C//DTD SVG 20010904//EN"
 "http://www.w3.org/TR/2001/REC-SVG-20010904/DTD/svg10.dtd">
<svg version="1.0" xmlns="http://www.w3.org/2000/svg"
 width="1019.000000pt" height="311.000000pt" viewBox="0 0 1019.000000 311.000000"
 preserveAspectRatio="xMidYMid meet">

<g transform="translate(0.000000,311.000000) scale(0.100000,-0.100000)"
fill="#000000" stroke="none">
<path d="M3730 2219 c0 -133 4 -226 12 -251 23 -77 109 -138 193 -138 44 0
114 39 149 83 l31 39 1 241 0 242 -5 -235 c-6 -248 -8 -255 -58 -301 -43 -40
-72 -52 -129 -51 -63 0 -104 20 -141 69 l-28 36 -3 239 c-2 141 -7 238 -13
238 -5 0 -9 -85 -9 -211z"/>
<path d="M4212 2133 l3 -298 5 290 5 290 26 -40 c14 -22 92 -151 173 -287 83
-139 154 -248 162 -248 12 0 14 46 14 295 0 187 -4 295 -10 295 -6 0 -11 -107
-12 -287 l-3 -286 -170 286 c-93 158 -176 287 -182 287 -10 0 -13 -65 -11
-297z"/>
<path d="M4684 2135 c0 -165 2 -234 3 -153 2 81 2 216 0 300 -1 84 -3 18 -3
-147z"/>
<path d="M4780 2136 l0 -296 83 0 c113 0 173 19 238 77 70 64 99 127 99 218 0
88 -29 153 -93 212 -65 60 -106 75 -224 81 l-103 5 0 -297z m273 240 c50 -29
103 -93 124 -149 17 -46 16 -136 -3 -189 -21 -62 -74 -121 -136 -152 -45 -23
-65 -26 -150 -26 l-98 0 0 276 0 276 108 -3 c96 -4 112 -7 155 -33z"/>
<path d="M5362 2139 c-101 -160 -181 -293 -179 -295 3 -3 27 31 56 76 l51 80
135 0 135 0 0 -80 c0 -47 4 -80 10 -80 6 0 10 105 10 295 0 274 -1 295 -17
295 -12 0 -76 -92 -201 -291z m198 76 l0 -205 -131 0 c-72 0 -129 4 -127 8 6
15 252 402 255 402 2 0 3 -92 3 -205z"/>
<path d="M5670 2135 l0 -297 103 4 c86 3 110 8 153 31 175 90 218 311 88 456
-62 69 -124 94 -246 99 l-98 4 0 -297z m252 252 c99 -49 153 -140 152 -257 0
-86 -21 -136 -81 -196 -58 -58 -103 -74 -215 -74 l-98 0 0 276 0 276 103 -4
c73 -2 113 -8 139 -21z"/>
<path d="M6370 2135 l0 -297 103 4 c86 3 110 8 153 31 175 90 218 311 88 456
-62 69 -124 94 -246 99 l-98 4 0 -297z m252 252 c99 -49 153 -140 152 -257 0
-86 -21 -136 -81 -196 -58 -58 -103 -74 -215 -74 l-98 0 0 276 0 276 103 -4
c73 -2 113 -8 139 -21z"/>
<path d="M6860 2135 l0 -295 145 0 c90 0 145 4 145 10 0 6 -53 10 -140 10
l-140 0 0 135 0 134 118 4 117 3 -117 2 -118 2 0 135 0 135 140 0 c87 0 140 4
140 10 0 6 -55 10 -145 10 l-145 0 0 -295z"/>
<path d="M7222 2138 l-2 -298 145 0 c90 0 145 4 145 10 0 6 -53 10 -140 10
l-140 0 -3 288 -2 287 -3 -297z"/>
<path d="M452 2004 l-232 -137 2 -270 3 -271 195 -114 c107 -62 212 -123 232
-134 l36 -21 154 88 c84 49 158 92 164 97 8 6 5 25 -13 69 -68 168 -70 387 -4
574 12 32 21 62 21 66 0 7 -280 172 -310 183 -9 3 -114 -52 -248 -130z"/>
<path d="M2635 2054 c-82 -48 -154 -90 -158 -94 -5 -4 3 -41 17 -82 58 -170
61 -368 7 -523 -17 -49 -32 -94 -33 -99 -3 -8 307 -195 324 -196 4 0 109 60
235 133 l228 133 3 271 2 271 -224 131 c-124 72 -231 133 -238 136 -7 3 -80
-34 -163 -81z"/>
<path d="M1051 1838 c-48 -166 -49 -320 -1 -463 30 -89 31 -90 73 -65 37 22
37 22 37 90 l0 67 47 -23 c58 -30 98 -30 153 -1 102 54 111 200 17 271 -42 31
-143 30 -186 -2 l-31 -23 0 90 0 89 -34 21 c-18 12 -38 21 -43 21 -6 0 -20
-33 -32 -72z"/>
<path d="M2353 1889 l-33 -21 0 -89 0 -90 -30 22 c-41 31 -124 36 -170 11 -19
-10 -46 -34 -58 -53 -20 -29 -23 -44 -20 -94 4 -72 26 -106 84 -135 53 -26 90
-25 147 4 l47 23 0 -67 c0 -68 0 -68 36 -89 20 -12 39 -20 41 -17 16 15 54
146 64 218 9 63 9 105 0 169 -13 101 -50 229 -65 229 -6 0 -26 -10 -43 -21z"/>
<path d="M3740 1285 l0 -295 40 0 40 0 0 125 0 125 54 0 54 0 65 -122 64 -123
47 -3 46 -3 -67 130 -68 130 37 31 c99 82 80 228 -36 281 -32 15 -65 19 -158
19 l-118 0 0 -295z m250 202 c52 -26 62 -95 20 -137 -17 -17 -34 -20 -105 -20
l-85 0 0 85 0 85 73 0 c39 0 83 -6 97 -13z"/>
<path d="M4210 1285 l0 -295 145 0 145 0 0 45 0 45 -105 0 -105 0 0 85 0 85
80 0 80 0 0 40 0 40 -80 0 -80 0 0 85 0 85 105 0 105 0 0 40 0 40 -145 0 -145
0 0 -295z"/>
<path d="M4740 1559 c-142 -64 -213 -228 -163 -375 23 -67 110 -154 177 -177
62 -21 139 -22 199 -1 l47 16 0 154 0 154 -90 0 -90 0 0 -40 0 -40 50 0 50 0
0 -85 c0 -83 -1 -85 -26 -91 -41 -11 -115 4 -156 31 -109 72 -129 228 -42 325
47 51 106 74 183 68 55 -4 60 -2 70 19 24 53 9 63 -99 63 -44 0 -80 -7 -110
-21z"/>
<path d="M5080 1285 l0 -295 40 0 40 0 0 295 0 295 -40 0 -40 0 0 -295z"/>
<path d="M5328 1560 c-49 -27 -78 -70 -84 -127 -10 -83 46 -142 174 -184 93
-31 122 -52 122 -93 0 -44 -36 -77 -92 -83 -48 -6 -115 16 -124 41 -4 12 -12
12 -37 4 -50 -17 -51 -24 -10 -65 109 -109 306 -70 343 68 10 36 8 47 -12 87
-25 51 -64 82 -136 107 -135 48 -166 77 -143 133 7 16 24 34 37 41 35 15 110
14 143 -4 27 -13 30 -13 55 14 l27 29 -38 23 c-53 33 -172 38 -225 9z"/>
<path d="M5690 1540 l0 -40 60 0 60 0 0 -255 0 -255 40 0 40 0 0 255 0 255 65
0 65 0 0 40 0 40 -165 0 -165 0 0 -40z"/>
<path d="M6100 1285 l0 -295 40 0 40 0 0 125 0 125 58 0 57 0 65 -125 64 -125
43 0 c24 0 43 2 43 5 0 2 -30 61 -66 129 l-65 125 39 36 c50 45 66 82 60 144
-6 61 -36 103 -91 130 -37 18 -62 21 -165 21 l-122 0 0 -295z m274 186 c32
-30 34 -78 5 -115 -19 -25 -25 -26 -110 -26 l-89 0 0 86 0 86 84 -3 c73 -4 88
-7 110 -28z"/>
<path d="M6745 1568 c-161 -58 -243 -247 -173 -400 49 -106 136 -168 249 -176
87 -6 154 16 216 72 127 114 137 292 25 417 -63 71 -126 99 -217 98 -38 0 -83
-5 -100 -11z m195 -90 c193 -98 137 -385 -80 -406 -87 -8 -169 38 -211 119
-23 45 -25 134 -5 182 16 41 71 96 111 113 48 21 134 17 185 -8z"/>
<path d="M7493 1559 c-70 -35 -105 -117 -80 -189 15 -42 82 -95 145 -114 125
-37 165 -72 142 -125 -26 -64 -145 -81 -197 -28 -22 22 -29 23 -59 14 -42 -13
-43 -31 -4 -67 103 -96 280 -71 332 47 41 93 -14 176 -147 222 -112 38 -135
56 -135 101 0 30 6 43 26 59 32 25 111 28 152 7 25 -13 30 -12 55 10 33 28 29
40 -27 65 -57 26 -149 25 -203 -2z"/>
<path d="M8014 1556 c-60 -28 -115 -80 -146 -139 -19 -35 -23 -58 -23 -132 0
-80 3 -95 27 -137 102 -173 314 -210 458 -81 69 62 92 110 98 204 4 67 1 84
-20 131 -52 113 -151 178 -273 178 -53 0 -83 -6 -121 -24z m204 -72 c146 -61
178 -257 59 -361 -137 -120 -356 -22 -357 160 0 154 156 261 298 201z"/>
<path d="M8685 1568 c-81 -29 -158 -108 -184 -191 -19 -58 -15 -150 9 -204 25
-57 90 -127 143 -154 46 -24 119 -34 181 -25 l46 7 0 46 c0 39 -2 44 -17 38
-35 -15 -111 -17 -148 -5 -48 16 -101 63 -127 113 -16 32 -19 54 -16 107 4 77
32 128 94 169 41 29 134 40 183 23 l31 -11 0 43 c0 31 -5 46 -16 50 -25 10
-146 5 -179 -6z"/>
<path d="M8960 1285 l0 -295 45 0 45 0 0 295 0 295 -45 0 -45 0 0 -295z"/>
<path d="M9295 1293 c-99 -157 -181 -290 -183 -294 -2 -5 17 -9 42 -9 45 0 45
0 88 70 l43 70 108 0 107 0 0 -70 0 -70 40 0 40 0 0 295 0 295 -52 0 -53 -1
-180 -286z m205 37 l0 -120 -75 0 c-45 0 -75 4 -75 10 0 16 136 230 146 230 2
0 4 -54 4 -120z"/>
<path d="M9690 1285 l0 -295 145 0 145 0 0 45 0 45 -105 0 -105 0 0 250 0 250
-40 0 -40 0 0 -295z"/>
<path d="M1444 1346 c-58 -26 -103 -113 -88 -172 l7 -28 -49 29 c-27 16 -62
37 -78 46 -29 18 -31 17 -68 -3 -21 -12 -38 -27 -38 -34 0 -21 156 -161 226
-202 80 -47 169 -79 254 -91 l60 -8 0 43 c0 41 -2 44 -55 74 -66 38 -72 46
-41 54 36 9 83 63 95 110 33 131 -98 237 -225 182z"/>
<path d="M1874 1346 c-65 -29 -103 -114 -84 -185 12 -45 59 -98 96 -107 31 -8
25 -16 -41 -53 -53 -30 -55 -32 -55 -74 l0 -44 60 8 c147 21 282 91 403 209
42 41 77 80 77 86 0 6 -17 20 -38 32 -37 20 -39 21 -68 4 -16 -10 -50 -30 -75
-45 l-47 -26 1 48 c1 54 -23 102 -65 134 -34 26 -121 33 -164 13z"/>
<path d="M888 1059 l-158 -91 0 -222 c0 -121 3 -244 6 -273 l7 -52 227 -130
c125 -72 231 -131 235 -131 4 0 111 59 236 131 l229 131 0 193 0 192 -60 7
c-173 20 -394 144 -505 285 -22 28 -44 50 -50 50 -5 0 -81 -40 -167 -90z"/>
<path d="M2390 1142 c0 -16 -141 -152 -198 -190 -113 -77 -233 -125 -342 -138
l-60 -7 0 -193 0 -193 229 -130 c125 -72 232 -131 236 -131 4 0 110 59 235
131 l227 131 6 142 c4 77 7 200 7 272 l0 131 -159 92 c-154 88 -181 100 -181
83z"/>
<path d="M6360 755 l0 -55 1340 0 1340 0 0 55 0 55 -1340 0 -1340 0 0 -55z"/>
</g>
</svg>
